<svg width="690" height="200" viewBox="0 0 690 200" fill="none" xmlns="http://www.w3.org/2000/svg">
<path d="M0 200L26.2632 0H78.5383L104.801 200H71.5013L66.9774 154.125H37.824L33.3002 200H0ZM40.8399 125.625H63.9616L59.5634 81.625L55.9193 28.5H48.8822L45.238 81.625L40.8399 125.625Z" fill="#DAE2E2"/>
<path d="M116.453 200V0H162.822C179.828 0 192.143 3.625 199.766 10.875C207.389 18.125 211.327 30.0833 211.578 46.75C211.83 59.4167 211.997 71.4583 212.081 82.875C212.165 94.2083 212.165 105.583 212.081 117C211.997 128.333 211.83 140.333 211.578 153C211.327 169.75 207.389 181.792 199.766 189.125C192.143 196.375 179.786 200 162.696 200H116.453ZM148.999 171.5H162.696C168.141 171.5 172.204 170.25 174.885 167.75C177.65 165.25 179.074 161.625 179.158 156.875C179.409 147.292 179.576 137.792 179.66 128.375C179.828 118.875 179.912 109.375 179.912 99.875C179.912 90.375 179.828 80.875 179.66 71.375C179.576 61.875 179.409 52.4167 179.158 43C179.074 38.25 177.65 34.6667 174.885 32.25C172.204 29.75 168.183 28.5 162.822 28.5H148.999V171.5Z" fill="#DAE2E2"/>
<path d="M220.035 200L246.298 0H298.573L324.836 200H291.536L287.012 154.125H257.859L253.335 200H220.035ZM260.875 125.625H283.996L279.598 81.625L275.954 28.5H268.917L265.273 81.625L260.875 125.625Z" fill="#DAE2E2"/>
<path d="M336.487 200V0H380.595C397.517 0 409.706 3.45833 417.162 10.375C424.702 17.2917 428.765 28.7083 429.351 44.625C429.602 52.7083 429.728 60.125 429.728 66.875C429.728 73.5417 429.602 80.625 429.351 88.125C428.765 104.042 424.702 115.5 417.162 122.5C409.622 129.417 397.391 132.875 380.469 132.875H369.034V200H336.487ZM369.034 104.375H380.469C385.914 104.375 389.935 103.125 392.532 100.625C395.213 98.125 396.679 94.5417 396.931 89.875C397.182 85.125 397.349 80.0417 397.433 74.625C397.517 69.125 397.517 63.6667 397.433 58.25C397.349 52.75 397.182 47.6667 396.931 43C396.679 38.25 395.213 34.6667 392.532 32.25C389.935 29.75 385.956 28.5 380.595 28.5H369.034V104.375Z" fill="#DAE2E2"/>
<path d="M464.919 200V28.5H434.383V0H528.001V28.5H497.34V200H464.919Z" fill="#DAE2E2"/>
<path d="M537.869 200V0H570.416V200H537.869Z" fill="#DAE2E2"/>
<path d="M609.451 200L582.308 0H615.86L629.683 103L632.698 171.5H639.61L642.626 103L656.448 0H690L662.857 200H609.451Z" fill="#DAE2E2"/>
</svg>
