<svg width="85" height="23" viewBox="0 0 85 23" fill="none" xmlns="http://www.w3.org/2000/svg">
<path d="M12.6479 13.056L14.5919 18H16.8479L9.79189 0.719971H7.48788L0.431885 18H2.68788L4.63189 13.056H12.6479ZM11.8799 11.136H5.39989L8.63988 2.90397L11.8799 11.136Z" fill="#EAEEEE"/>
<path d="M28.2173 18H30.1373V0.719971H28.1213V7.29597C27.2333 5.97597 25.8173 5.23197 23.9933 5.23197C22.7693 5.23197 21.7373 5.51997 20.8733 6.07197C19.1213 7.19997 18.1853 9.23997 18.1853 11.76C18.1853 13.032 18.4253 14.136 18.8813 15.12C19.7933 17.088 21.5693 18.288 23.9933 18.288C25.8893 18.288 27.2813 17.496 28.2173 16.08V18ZM20.2973 11.76C20.2973 8.90397 21.6653 7.05597 24.2333 7.05597C26.8013 7.05597 28.1693 8.90397 28.1693 11.76C28.1693 14.616 26.8013 16.464 24.2333 16.464C21.6653 16.464 20.2973 14.616 20.2973 11.76Z" fill="#EAEEEE"/>
<path d="M40.8811 18H42.7531V8.83197C42.7531 6.55197 41.1931 5.23197 38.0491 5.23197C35.0971 5.23197 32.9131 6.55197 32.8171 9.35997H34.8331C34.9291 7.63197 36.2971 7.00797 38.0491 7.00797C39.8491 7.00797 40.7851 7.58397 40.7851 9.02397V9.98397L36.8731 10.728C33.9691 11.28 32.3851 12.48 32.3851 14.616C32.3851 16.944 34.0891 18.288 36.8971 18.288C38.6011 18.288 39.9211 17.664 40.8811 16.44V18ZM34.4731 14.568C34.4731 13.248 35.3131 12.816 37.1611 12.432L40.7851 11.688V13.056C40.7851 13.824 40.5931 14.472 40.2331 14.976C39.4891 16.032 38.2651 16.512 36.9931 16.512C35.2891 16.512 34.4731 15.792 34.4731 14.568Z" fill="#EAEEEE"/>
<path d="M47.3063 5.51997H45.3863V22.8H47.4023V16.224C48.2903 17.544 49.7063 18.288 51.5303 18.288C52.7543 18.288 53.7863 18 54.6743 17.448C56.4023 16.32 57.3383 14.28 57.3383 11.76C57.3383 10.488 57.1223 9.35997 56.6663 8.37597C55.7543 6.40797 53.9543 5.23197 51.5303 5.23197C49.6343 5.23197 48.2423 6.02397 47.3063 7.43997V5.51997ZM47.3543 11.76C47.3543 8.90397 48.7223 7.05597 51.2903 7.05597C53.8583 7.05597 55.2263 8.90397 55.2263 11.76C55.2263 14.616 53.8583 16.464 51.2903 16.464C48.7223 16.464 47.3543 14.616 47.3543 11.76Z" fill="#EAEEEE"/>
<path d="M62.9941 1.67997H60.9781V5.51997H58.6741V7.29597H60.9781V15.168C60.9781 17.112 61.7941 18 63.9061 18H66.3541V16.224H64.2901C63.4021 16.224 62.9941 15.816 62.9941 14.928V7.29597H66.3541V5.51997H62.9941V1.67997Z" fill="#EAEEEE"/>
<path d="M68.4711 0.719971V3.16797H70.4871V0.719971H68.4711ZM68.4711 5.51997V18H70.4871V5.51997H68.4711Z" fill="#EAEEEE"/>
<path d="M72.1216 5.51997L77.1136 18H79.1776L84.1696 5.51997H81.9856L78.1456 15.672L74.3056 5.51997H72.1216Z" fill="#EAEEEE"/>
</svg>
